<svg xmlns="http://www.w3.org/2000/svg" width="32" height="32" id="location"><g transform="translate(-549 -1527.82)"><path style="line-height:normal;text-indent:0;text-align:start;text-decoration-line:none;text-decoration-style:solid;text-decoration-color:#000;text-transform:none;block-progression:tb;isolation:auto;mix-blend-mode:normal" fill="#25b39e" d="M570.547 1548.936c.708.284 1.053.718 1.053 1.092 0 .293-.195.61-.641.886s-1.114.467-1.86.467c-.744 0-1.41-.19-1.857-.467-.446-.275-.642-.593-.642-.886 0-.373.343-.806 1.048-1.09.352-.556 2.75-.957 2.899 0z" color="#000" font-family="sans-serif" font-weight="400" overflow="visible"></path><path style="line-height:normal;text-indent:0;text-align:start;text-decoration-line:none;text-decoration-style:solid;text-decoration-color:#000;text-transform:none;block-progression:tb;isolation:auto;mix-blend-mode:normal" fill="#2b4255" d="M570.725 1547.969a.5.5 0 0 0-.178.967c.708.284 1.053.718 1.053 1.092 0 .293-.195.61-.641.886s-1.114.467-1.86.467c-.744 0-1.41-.19-1.857-.467-.446-.275-.642-.593-.642-.886 0-.373.343-.806 1.048-1.09a.5.5 0 1 0-.373-.928c-.934.377-1.675 1.09-1.675 2.018 0 .73.477 1.34 1.117 1.736.64.395 1.47.617 2.383.617.912 0 1.745-.222 2.384-.617.64-.395 1.116-1.006 1.116-1.736 0-.93-.742-1.643-1.68-2.02a.5.5 0 0 0-.195-.039z" color="#000" font-family="sans-serif" font-weight="400" overflow="visible"></path><path fill="#f05542" d="M572.6 1544.766c0 1.869-3.5 5.616-3.5 5.616s-3.5-3.747-3.5-5.616c0-1.869 1.567-3.384 3.5-3.384s3.5 1.515 3.5 3.384z"></path><path style="line-height:normal;text-indent:0;text-align:start;text-decoration-line:none;text-decoration-style:solid;text-decoration-color:#000;text-transform:none;block-progression:tb;isolation:auto;mix-blend-mode:normal" fill="#2b4255" fill-rule="evenodd" d="m574.516 1539.344.468.826.743-.414-.516-.858zm-2.68 1.545.514.857 1.714-1.029-.515-.857zm-9.115 9.002.004 1 2-.01-.004-1zm-2.473 2.127.766.643 1.285-1.534-.766-.64zm-1.928 2.299.768.643 1.283-1.532-.766-.642zm-2.537.826.277.961 1.922-.553-.277-.96zm-2.498.717.276.96 1.537-.44-.276-.962z" color="#000" font-family="sans-serif" font-weight="400" overflow="visible"></path><circle cx="569.1" cy="1544.638" r="1" fill="#4bbfeb"></circle><path fill="#f05542" d="M557 1550.766c0 1.869-3.5 5.616-3.5 5.616s-3.5-3.747-3.5-5.616c0-1.869 1.567-3.384 3.5-3.384s3.5 1.515 3.5 3.384z"></path><circle cx="553.5" cy="1550.638" r="1" fill="#4bbfeb"></circle><path fill="#f05542" d="M579 1533.766c0 1.869-3.5 5.616-3.5 5.616s-3.5-3.747-3.5-5.616c0-1.869 1.567-3.384 3.5-3.384s3.5 1.515 3.5 3.384z"></path><circle cx="575.5" cy="1533.638" r="1" fill="#4bbfeb"></circle></g></svg>